<svg width="115" height="26" viewBox="0 0 115 26" fill="none" xmlns="http://www.w3.org/2000/svg">
<path d="M45.062 18.7128L39.535 12.6594L45.06 6.47675L51.144 12.5931L45.062 18.7128ZM40.655 12.6526L45.078 17.4946L49.948 12.5965L45.08 7.70171L40.655 12.6526Z" fill="#0D0F12"/>
<path d="M49.479 18.7128L43.952 12.6594L49.477 6.47675L55.561 12.5931L49.479 18.7128ZM45.072 12.6526L49.494 17.4946L54.365 12.5965L49.497 7.70171L45.072 12.6526Z" fill="#0D0F12"/>
<path d="M64.192 18.7128L58.665 12.6594L64.19 6.47675L70.274 12.5931L64.192 18.7128ZM59.784 12.6526L64.207 17.4946L69.077 12.5965L64.209 7.70171L59.784 12.6526Z" fill="#0D0F12"/>
<path d="M68.608 18.7128L63.081 12.6594L68.606 6.47675L74.69 12.5931L68.608 18.7128ZM64.201 12.6526L68.624 17.4946L73.495 12.5965L68.626 7.70171L64.201 12.6526Z" fill="#0D0F12"/>
<path d="M109.788 13.0237H73.722C73.544 13.0237 73.4 12.7974 73.4 12.5166C73.4 12.2376 73.545 12.0095 73.722 12.0095H109.788C109.966 12.0095 110.109 12.2376 110.109 12.5166C110.109 12.7974 109.965 13.0237 109.788 13.0237Z" fill="#0D0F12"/>
<path d="M40.376 13.0237H4.31001C4.13201 13.0237 3.98901 12.7974 3.98901 12.5166C3.98901 12.2376 4.13301 12.0095 4.31001 12.0095H40.376C40.554 12.0095 40.697 12.2376 40.697 12.5166C40.698 12.7974 40.554 13.0237 40.376 13.0237Z" fill="#0D0F12"/>
<path d="M108.257 12.5506C109.266 12.5761 111.052 15.6113 111.052 15.6113C111.052 15.6113 112.309 12.5165 114.129 12.5165C112.309 12.5165 111.052 9.42352 111.052 9.42352C111.052 9.42352 109.266 12.5267 108.257 12.5506Z" fill="#0D0F12"/>
<path d="M5.87201 12.4842C4.86401 12.4587 3.07701 9.42352 3.07701 9.42352C3.07701 9.42352 1.82 12.5183 0 12.5183C1.82 12.5183 3.07701 15.6113 3.07701 15.6113C3.07701 15.6113 4.86401 12.508 5.87201 12.4842Z" fill="#0D0F12"/>
<path d="M57.094 18.2928L53.211 8.70913L57.052 0L60.977 8.7057L57.094 18.2928ZM53.985 8.73296L57.094 16.4077L60.201 8.73633L57.057 1.76427L53.985 8.73296Z" fill="#0D0F12"/>
<path d="M57.094 25.2528L53.211 15.6691L57.052 6.95996L60.977 15.6657L57.094 25.2528ZM53.985 15.693L57.094 23.3677L60.201 15.6963L57.057 8.72428L53.985 15.693Z" fill="#0D0F12"/>
</svg>
